<svg width="240" height="288" viewBox="0 0 240 288" fill="none" xmlns="http://www.w3.org/2000/svg">
<path fill-rule="evenodd" clip-rule="evenodd" d="M0.0605469 0.443115H239.178V287.957H0.0605469V0.443115Z" fill="#FEEA75"/>
<g clip-path="url(#clip0)">
<g style="mix-blend-mode:multiply" opacity="0.5">
<path d="M120.929 210.138C152.588 210.138 178.253 184.473 178.253 152.814C178.253 121.155 152.588 95.49 120.929 95.49C89.2693 95.49 63.6045 121.155 63.6045 152.814C63.6045 184.473 89.2693 210.138 120.929 210.138Z" fill="#F9D700"/>
</g>
<path d="M157.512 129.838H85.3918C84.8565 129.839 84.3434 130.052 83.9649 130.43C83.5864 130.809 83.3736 131.322 83.373 131.857V196.121C93.3323 204.474 106.168 210.138 120.184 210.138C134.822 210.154 148.906 204.549 159.531 194.48V131.857C159.53 131.322 159.318 130.809 158.939 130.43C158.561 130.052 158.047 129.839 157.512 129.838Z" fill="white"/>
<path d="M152.459 92.1616C153.159 92.1616 153.727 91.5939 153.727 90.8934C153.727 90.193 153.159 89.6252 152.459 89.6252C151.758 89.6252 151.19 90.193 151.19 90.8934C151.19 91.5939 151.758 92.1616 152.459 92.1616Z" fill="#ECBF00"/>
<path d="M61.5446 113.934C62.245 113.934 62.8128 113.366 62.8128 112.666C62.8128 111.965 62.245 111.397 61.5446 111.397C60.8442 111.397 60.2764 111.965 60.2764 112.666C60.2764 113.366 60.8442 113.934 61.5446 113.934Z" fill="#ECBF00"/>
<path d="M121.41 97.5501C122.547 97.5501 123.47 96.6278 123.47 95.49C123.47 94.3523 122.547 93.4299 121.41 93.4299C120.272 93.4299 119.35 94.3523 119.35 95.49C119.35 96.6278 120.272 97.5501 121.41 97.5501Z" fill="#ECBF00"/>
<path d="M63.605 154.874C64.7428 154.874 65.6651 153.952 65.6651 152.814C65.6651 151.676 64.7428 150.754 63.605 150.754C62.4673 150.754 61.5449 151.676 61.5449 152.814C61.5449 153.952 62.4673 154.874 63.605 154.874Z" fill="#ECBF00"/>
<path d="M178.252 154.874C179.39 154.874 180.313 153.952 180.313 152.814C180.313 151.676 179.39 150.754 178.252 150.754C177.115 150.754 176.192 151.676 176.192 152.814C176.192 153.952 177.115 154.874 178.252 154.874Z" fill="#ECBF00"/>
<path opacity="0.8" d="M159.531 130.222H83.373V144.42H159.531V130.222Z" fill="#FFE037"/>
<g opacity="0.7">
<path opacity="0.7" d="M48.7578 125.881H55.4422" stroke="#ECBF00" stroke-miterlimit="10" stroke-linecap="round"/>
<path opacity="0.7" d="M52.0996 129.223V122.539" stroke="#ECBF00" stroke-miterlimit="10" stroke-linecap="round"/>
<path opacity="0.7" d="M186.992 174.073H193.677" stroke="#ECBF00" stroke-miterlimit="10" stroke-linecap="round"/>
<path opacity="0.7" d="M190.334 177.415V170.73" stroke="#ECBF00" stroke-miterlimit="10" stroke-linecap="round"/>
<path opacity="0.7" d="M98.2842 80.5962V82.3159" stroke="#ECBF00" stroke-width="0.8" stroke-miterlimit="10" stroke-linecap="round"/>
<path opacity="0.7" d="M98.2842 86.6935V88.4132" stroke="#ECBF00" stroke-width="0.8" stroke-miterlimit="10" stroke-linecap="round"/>
<path opacity="0.7" d="M102.271 84.5829H100.551" stroke="#ECBF00" stroke-width="0.8" stroke-miterlimit="10" stroke-linecap="round"/>
<path opacity="0.7" d="M96.1338 84.5829H94.4141" stroke="#ECBF00" stroke-width="0.8" stroke-miterlimit="10" stroke-linecap="round"/>
<path opacity="0.7" d="M101.159 81.7079L99.9434 82.9239" stroke="#ECBF00" stroke-width="0.8" stroke-miterlimit="10" stroke-linecap="round"/>
<path opacity="0.7" d="M101.159 87.3015L99.9434 86.0854" stroke="#ECBF00" stroke-width="0.8" stroke-miterlimit="10" stroke-linecap="round"/>
<path opacity="0.7" d="M95.3975 81.7079L96.6135 82.9239" stroke="#ECBF00" stroke-width="0.8" stroke-miterlimit="10" stroke-linecap="round"/>
<path opacity="0.7" d="M95.3975 87.3015L96.6135 86.0854" stroke="#ECBF00" stroke-width="0.8" stroke-miterlimit="10" stroke-linecap="round"/>
<path opacity="0.7" d="M163.702 92.411C165.123 92.411 166.275 91.259 166.275 89.8379C166.275 88.4168 165.123 87.2648 163.702 87.2648C162.281 87.2648 161.129 88.4168 161.129 89.8379C161.129 91.259 162.281 92.411 163.702 92.411Z" stroke="#ECBF00" stroke-miterlimit="10" stroke-linecap="round"/>
</g>
<path d="M162.896 100.517H169.581" stroke="#FFF1A6" stroke-miterlimit="10" stroke-linecap="round"/>
<path d="M166.238 103.859V97.1748" stroke="#FFF1A6" stroke-miterlimit="10" stroke-linecap="round"/>
<path d="M192.143 157.442V158.83" stroke="#FFF1A6" stroke-width="0.8" stroke-miterlimit="10" stroke-linecap="round"/>
<path d="M192.143 162.364V163.752" stroke="#FFF1A6" stroke-width="0.8" stroke-miterlimit="10" stroke-linecap="round"/>
<path d="M195.361 160.66H193.973" stroke="#FFF1A6" stroke-width="0.8" stroke-miterlimit="10" stroke-linecap="round"/>
<path d="M190.408 160.66H189.02" stroke="#FFF1A6" stroke-width="0.8" stroke-miterlimit="10" stroke-linecap="round"/>
<path d="M194.463 158.339L193.481 159.321" stroke="#FFF1A6" stroke-width="0.8" stroke-miterlimit="10" stroke-linecap="round"/>
<path d="M194.463 162.854L193.481 161.873" stroke="#FFF1A6" stroke-width="0.8" stroke-miterlimit="10" stroke-linecap="round"/>
<path d="M189.812 158.339L190.794 159.321" stroke="#FFF1A6" stroke-width="0.8" stroke-miterlimit="10" stroke-linecap="round"/>
<path d="M189.812 162.854L190.794 161.873" stroke="#FFF1A6" stroke-width="0.8" stroke-miterlimit="10" stroke-linecap="round"/>
<path d="M46.1854 117.812C47.6065 117.812 48.7586 116.66 48.7586 115.239C48.7586 113.818 47.6065 112.666 46.1854 112.666C44.7643 112.666 43.6123 113.818 43.6123 115.239C43.6123 116.66 44.7643 117.812 46.1854 117.812Z" stroke="#FFF1A6" stroke-miterlimit="10" stroke-linecap="round"/>
<path d="M84.1836 143.861H156.626" stroke="#ECBF00" stroke-linecap="round" stroke-linejoin="round"/>
<path d="M89.2217 134.679L91.4673 137.014L89.2217 139.258" stroke="#ECBF00" stroke-linecap="round" stroke-linejoin="round"/>
<path d="M92.1846 139.963H95.5457" stroke="#ECBF00" stroke-linecap="round" stroke-linejoin="round"/>
<path d="M64.2998 143.858C66.1852 131.972 71.7606 120.98 80.237 112.437C88.7135 103.895 99.6618 98.234 111.533 96.2562" stroke="#ECBF00" stroke-miterlimit="10" stroke-linecap="round"/>
<path d="M177.497 162.143C175.283 175.548 168.381 187.732 158.021 196.522C147.66 205.312 134.516 210.137 120.929 210.138C107.118 210.137 93.7711 205.151 83.3423 196.097C72.9135 187.042 66.1035 174.527 64.1641 160.853" stroke="#ECBF00" stroke-miterlimit="10" stroke-linecap="round"/>
<path d="M130.147 96.2273C142.151 98.1882 153.22 103.913 161.757 112.576C170.294 121.238 175.857 132.39 177.643 144.42" stroke="#ECBF00" stroke-miterlimit="10" stroke-linecap="round"/>
<path d="M101.045 162.218H133.21C133.855 162.218 134.473 162.474 134.928 162.93C135.384 163.385 135.64 164.004 135.64 164.648V196.813H101.045V162.218Z" fill="#FFE600"/>
<path d="M115.091 190.973L116.01 190.038C116.043 189.999 116.084 189.969 116.131 189.949C116.177 189.928 116.228 189.919 116.278 189.92C116.329 189.922 116.379 189.935 116.424 189.959C116.469 189.982 116.508 190.015 116.539 190.056C116.68 190.229 116.858 190.369 117.059 190.467C117.26 190.564 117.48 190.617 117.704 190.621C118.392 190.621 119.116 190.056 119.116 188.838V180.507C119.116 180.463 119.125 180.419 119.142 180.378C119.158 180.337 119.183 180.3 119.214 180.269C119.245 180.238 119.282 180.213 119.323 180.197C119.364 180.18 119.407 180.171 119.452 180.171H121.11C121.154 180.171 121.198 180.18 121.239 180.197C121.279 180.213 121.316 180.238 121.348 180.269C121.379 180.3 121.403 180.337 121.42 180.378C121.437 180.419 121.446 180.463 121.446 180.507V188.838C121.485 189.342 121.417 189.848 121.246 190.324C121.076 190.8 120.807 191.235 120.457 191.599C120.107 191.964 119.684 192.251 119.216 192.441C118.748 192.631 118.244 192.721 117.739 192.703C117.223 192.707 116.714 192.593 116.249 192.369C115.784 192.146 115.376 191.82 115.056 191.415C115.014 191.347 114.995 191.268 115.001 191.188C115.008 191.109 115.039 191.033 115.091 190.973Z" fill="#ECBF00" stroke="#ECBF00" stroke-width="0.404676" stroke-linecap="round"/>
<path d="M123.95 190.797L124.585 189.702C124.614 189.652 124.653 189.608 124.7 189.575C124.747 189.541 124.801 189.517 124.858 189.505C124.914 189.494 124.973 189.494 125.029 189.507C125.086 189.52 125.139 189.544 125.185 189.579C125.969 190.16 126.885 190.537 127.851 190.673C128.046 190.691 128.243 190.67 128.43 190.611C128.616 190.553 128.79 190.457 128.939 190.331C129.089 190.204 129.211 190.049 129.3 189.874C129.389 189.7 129.442 189.509 129.457 189.314C129.457 188.414 128.698 187.796 127.215 187.196C125.556 186.525 123.897 185.466 123.897 183.383C123.897 181.812 125.062 179.994 127.868 179.994C129.138 180.018 130.37 180.431 131.398 181.177C131.486 181.243 131.545 181.339 131.565 181.447C131.585 181.555 131.563 181.667 131.504 181.759L130.834 182.766C130.779 182.875 130.684 182.959 130.568 182.998C130.452 183.038 130.326 183.03 130.216 182.977C129.483 182.47 128.644 182.138 127.762 182.007C127.392 181.965 127.021 182.072 126.73 182.304C126.439 182.535 126.252 182.873 126.209 183.242C126.209 184.072 126.862 184.636 128.292 185.219C130.004 185.907 131.981 186.931 131.981 189.208C131.981 191.026 130.41 192.703 127.921 192.703C126.5 192.746 125.115 192.255 124.038 191.326C123.879 191.167 123.791 191.079 123.95 190.797Z" fill="#ECBF00" stroke="#ECBF00" stroke-width="0.404676" stroke-linecap="round"/>
<path d="M140.206 196.813V157.652H120.625H101.045V196.813H140.206Z" stroke="#ECBF00" stroke-linejoin="round"/>
<path d="M157.512 129.838H85.3918C84.8565 129.839 84.3434 130.052 83.9649 130.43C83.5864 130.809 83.3736 131.322 83.373 131.857V196.121C93.3323 204.474 106.168 210.138 120.184 210.138C135.423 210.138 149.263 204.892 159.531 195.192V131.857C159.53 131.322 159.318 130.809 158.939 130.43C158.561 130.052 158.047 129.839 157.512 129.838V129.838Z" stroke="#ECBF00" stroke-miterlimit="10"/>
</g>
<defs>
<clipPath id="clip0">
<rect width="152.85" height="130.643" fill="white" transform="translate(43 80.1067)"/>
</clipPath>
</defs>
</svg>
